<svg xmlns="http://www.w3.org/2000/svg" viewBox="0 0 183.43 71.54"><title>Infosys logo</title><path d="M460.22,535.12h6.38V499.87c-.19-4-5-10.29-12.44-10.29-7.77,0-11,2.77-13.63,5.54a1.84,1.84,0,0,0-.29.53h-.07v-.35l-.08-5.14h-6.21v45h6.38V502.26c.18-4,5.87-8,10.3-8,5.33,0,9.68,3.58,9.68,8.54v32.33Z" transform="translate(-420.29 -476.23)" style="fill:#0077be"/><polygon points="7.07 51.93 7.06 51.77 7.06 0.2 0 0.2 0 7.23 0 7.32 0 51.77 0 51.85 0 58.89 7.07 58.89 7.07 51.93" style="fill:#0077be"/><path d="M555.34,497.17l.06.15,2.61,6.41Z" transform="translate(-420.29 -476.23)" style="fill:#0077be"/><path d="M506.47,532.8c-8,.14-14.65-8.38-14.84-19.06s6.16-19.43,14.18-19.57,14.65,8.39,14.84,19.06-6.17,19.43-14.18,19.57m85-22.5c-7.72-3.84-10.35-4.63-10.26-9,0-5.83,4.76-7.58,8.72-7.58,4.51,0,7.35,1.67,11.33,4.56v-6.8a26.39,26.39,0,0,0-9.57-1.56c-7.33,0-14,2.67-15.64,8.86L567,521.25l-.94,2.81-.84-2.81L558,503.73l-2.38-5.82c-.09-.21-.16-.4-.24-.6L553,491.39a42.17,42.17,0,0,0-9.83-1.61h-.94c-8.48,0-16.63,3.56-16.63,12,0,.49,0,1,0,1.4-3.39-8.07-10.73-13.66-19.24-13.66a18.4,18.4,0,0,0-3,.24H479.48c-1-6,1.83-9.47,6.07-9.47,5.32,0,7.6,1.58,9.92,3.71h.22s0-.27,0-.7v-5.85c-1.52-.7-4.16-1.2-9-1.2-7.4,0-12.75,4.88-13.49,13.51h-5.7V494h5.62v34c0,.13,0,.24,0,.37v6.75h6.38V494h14.37a24.64,24.64,0,0,0-8.77,19.2c0,13.1,9.51,23.72,21.23,23.72s21.23-10.63,21.23-23.72a26.93,26.93,0,0,0-.39-4.56c2.11,3.4,6.14,5,11.57,7.39,6.41,2.71,10,5.07,10,9.11,0,4.84-4.57,7.35-9.72,7.31s-9-2-13.32-6v7.61c2.67,1.72,6.8,2.7,11.27,2.7,5.63,0,17.2-2,17.2-13.78,0-7-5.89-10.08-12.23-12.83-7.72-3.82-10.65-4.62-10.58-9,0-5.83,5.07-7.58,9-7.58a14.11,14.11,0,0,1,4.61.71c2.6,1,3.46,2.93,4.38,5l.69,1.54-.26-.61s.44,1,.26.61l12,29.07c-2,4.63-4.31,9.48-5.87,12.57l-.05.07c-.53,1.06-1,1.9-1.31,2.45l1.31-2.45-2.78,5.21h6.25c2.73-6,14.34-34.29,16.83-40.37,1.64,4.38,5.66,6.14,11.78,8.79,6.4,2.7,10,5.06,10,9.1,0,4.84-4.57,7.36-9.72,7.32s-9.26-2.21-13.83-6.48l-.41-.34v7.75c2.56,2.13,7.17,3.38,12.19,3.38,5.63,0,17.19-2.05,17.19-13.79,0-7-5.89-10.08-12.23-12.82" transform="translate(-420.29 -476.23)" style="fill:#0077be"/></svg>