<svg xmlns="http://www.w3.org/2000/svg" viewBox="0 0 252.01 68.45"><title>PhonePe logo - Brandlogos.net</title><circle cx="292.22" cy="384" r="34.22" transform="translate(-406.65 230.38) rotate(-76.71)" style="fill:#5f259f"/><path d="M431.05,403.55V391.13c0-3.06-1.15-4.59-4-4.59a15.16,15.16,0,0,0-3.25.38v18.16a1.23,1.23,0,0,1-1.15,1.15h-4.4a1.23,1.23,0,0,1-1.15-1.15V383.86a1.67,1.67,0,0,1,1.15-1.53A27.43,27.43,0,0,1,427,380.8c6.88,0,10.71,3.63,10.71,10.32v14.15a1.23,1.23,0,0,1-1.15,1.15h-2.68A2.82,2.82,0,0,1,431.05,403.55Zm17.21-7.46-.19,1.72c0,2.29,1.53,3.63,4,3.63a12.12,12.12,0,0,0,5.54-1.53c.19,0,.38-.19.57-.19a1,1,0,0,1,.76.38,7.62,7.62,0,0,1,.57.76,4,4,0,0,1,.76,1.91,2.65,2.65,0,0,1-1.34,2.29,15.1,15.1,0,0,1-7.26,1.72,11.57,11.57,0,0,1-7.46-2.29,9,9,0,0,1-3.06-6.88v-7.46c0-5.93,3.82-9.56,10.32-9.56,6.31,0,9.94,3.44,9.94,9.56v4.59a1.23,1.23,0,0,1-1.15,1.15h-12Zm-.19-4.21h7.26V390c0-2.29-1.34-3.82-3.63-3.82s-3.63,1.34-3.63,3.82Zm48.75,4.21-.19,1.72c0,2.29,1.53,3.63,4,3.63a12.12,12.12,0,0,0,5.54-1.53c.19,0,.38-.19.57-.19a1,1,0,0,1,.76.38,7.62,7.62,0,0,1,.57.76,4,4,0,0,1,.76,1.91,2.65,2.65,0,0,1-1.34,2.29,15.1,15.1,0,0,1-7.26,1.72,11.57,11.57,0,0,1-7.46-2.29,9,9,0,0,1-3.06-6.88v-7.46c0-5.93,3.82-9.56,10.32-9.56,6.31,0,9.94,3.44,9.94,9.56v4.59a1.23,1.23,0,0,1-1.15,1.15h-12Zm-.19-4.21h7.26V390c0-2.29-1.34-3.82-3.63-3.82s-3.63,1.34-3.63,3.82ZM384.22,406.42h2.68a1.23,1.23,0,0,0,1.15-1.15V391.13c0-6.5-3.44-10.32-9.18-10.32a16.67,16.67,0,0,0-4.78.76V374.5a2.94,2.94,0,0,0-2.87-2.87h-2.68a1.23,1.23,0,0,0-1.15,1.15v32.5a1.23,1.23,0,0,0,1.15,1.15h4.4a1.23,1.23,0,0,0,1.15-1.15v-18a9.71,9.71,0,0,1,3.25-.57c2.87,0,4,1.34,4,4.59v12.43A3.07,3.07,0,0,0,384.22,406.42Zm28.87-16.06v7.07c0,5.93-4,9.56-10.71,9.56-6.5,0-10.71-3.63-10.71-9.56v-7.07c0-5.93,4-9.56,10.71-9.56S413.08,384.44,413.08,390.36Zm-6.69,0a3.52,3.52,0,0,0-3.82-3.82c-2.49,0-3.82,1.34-3.82,3.82v7.07c0,2.29,1.34,3.63,3.82,3.63s3.82-1.34,3.82-3.63Zm-42.63-3.25c0,6.12-4.59,10.32-10.71,10.32a10.29,10.29,0,0,1-4.21-.76v8.6a1.23,1.23,0,0,1-1.15,1.15h-4.4a1.23,1.23,0,0,1-1.15-1.15v-30.4a1.67,1.67,0,0,1,1.15-1.53,27.43,27.43,0,0,1,8.79-1.53c6.88,0,11.66,4.21,11.66,10.71Zm-6.88-5c0-3.06-2.1-4.59-5-4.59a7,7,0,0,0-2.87.57v12.62a5.61,5.61,0,0,0,3.06.76c2.87,0,5-1.72,5-4.59v-4.78Zm130.38,5c0,6.12-4.59,10.32-10.71,10.32a10.29,10.29,0,0,1-4.21-.76v8.6a1.23,1.23,0,0,1-1.15,1.15h-4.4a1.23,1.23,0,0,1-1.15-1.15v-30.4a1.67,1.67,0,0,1,1.15-1.53,27.43,27.43,0,0,1,8.79-1.53c6.88,0,11.66,4.21,11.66,10.71Zm-6.88-5c0-3.06-2.1-4.59-5-4.59a7,7,0,0,0-2.87.57v12.62a5.61,5.61,0,0,0,3.06.76c2.87,0,5-1.72,5-4.59v-4.78Z" transform="translate(-257.99 -349.77)" style="fill:#5f259f"/><path d="M307.75,375.07a2.53,2.53,0,0,0-2.49-2.49h-4.59l-10.51-12a3.87,3.87,0,0,0-4-1.15l-3.63,1.15a.85.85,0,0,0-.38,1.34l11.47,10.9h-17.4a.9.9,0,0,0-1,1v1.91a2.53,2.53,0,0,0,2.49,2.49h2.68v9.18c0,6.88,3.63,10.9,9.75,10.9a13.23,13.23,0,0,0,5.35-1v6.12a3,3,0,0,0,3.06,3.06h2.68a1.23,1.23,0,0,0,1.15-1.15V377.94h4.4a.9.9,0,0,0,1-1Zm-12.23,16.44a9.11,9.11,0,0,1-3.82.76c-3.06,0-4.59-1.53-4.59-5v-9.18h8.41Z" transform="translate(-257.99 -349.77)" style="fill:#fff"/></svg>