<svg id="Layer_1" data-name="Layer 1" xmlns="http://www.w3.org/2000/svg" width="222.41" height="54.59" viewBox="0 0 222.41 54.59"><title>Walmart logo - Brandlogos.net</title><path d="M346.17,376.13v23.8h6.42V386a5.57,5.57,0,0,1,.31-1.94,4.36,4.36,0,0,1,3.92-3.05c2.6,0,3.83,2.2,3.83,5.38v13.57h6.45V385.81a6.3,6.3,0,0,1,.28-1.93,4.08,4.08,0,0,1,3.9-2.9c2.64,0,3.9,2.17,3.9,5.9v13h6.47v-14c0-7.37-3.76-10.3-8-10.3a8.64,8.64,0,0,0-4.7,1.28,10,10,0,0,0-3,3h-.1a6.77,6.77,0,0,0-6.54-4.25,7.48,7.48,0,0,0-6.94,3.76h-.09v-3.23h-6.14m61.48,0v23.78h6.63V387.76a9,9,0,0,1,.16-1.75,5,5,0,0,1,5.24-4.18,10.24,10.24,0,0,1,1.91.17v-6.24a6.37,6.37,0,0,0-1.46-.14,7,7,0,0,0-6.47,5h-.17v-4.51h-5.83m16.6-7.84v23.35c0,3.23.61,5.48,1.91,6.85a7.05,7.05,0,0,0,5.22,2,14.65,14.65,0,0,0,4.65-.69l-.07-5a9.32,9.32,0,0,1-2.45.29c-2.19,0-2.93-1.39-2.93-4.28v-8.93h5.6v-6.07h-5.6v-7.49h-6.33M342.42,393.2V368.29H336V400h6.42v-6.73m-9.94-7.48c0-5.38-2.29-10.13-10.06-10.13a18.48,18.48,0,0,0-8.92,2.12l1.27,4.34a12.83,12.83,0,0,1,6.49-1.82c4,0,4.6,2.24,4.6,3.66v.35c-8.6,0-14.05,3-14.05,9,0,3.71,2.78,7.18,7.6,7.18a8.65,8.65,0,0,0,6.92-3.07h.14s1,4.11,6.42,2.53a33.54,33.54,0,0,1-.4-5.72v-8.47Zm-6.42,5.69a3.83,3.83,0,0,1-.17,1.28,4.51,4.51,0,0,1-4.34,3.05,2.93,2.93,0,0,1-3.17-3.16c0-3.26,3.59-4.16,7.68-4.15Zm-53.27-23.16L279.32,395c1,4.37,2.93,6,8.36,4.89l3.52-14.28c.88-3.56,1.49-6.07,2.06-9.7h.09c.42,3.64,1,6.16,1.72,9.71l2.15,9.89c.75,3.4,2.78,5.55,8.12,4.37l8.36-31.66h-6.77L304.09,382c-.78,4-1.47,7.11-2,10.75H302c-.49-3.63-1.11-6.61-1.91-10.49l-2.95-13.95h-7l-3.19,13.58c-.88,4.13-1.73,7.46-2.26,11h-.1c-.56-3.3-1.28-7.51-2.08-11.5l-2.55-13.06h-7.11m131.7,17.47c0-5.38-2.31-10.13-10.08-10.13a18.4,18.4,0,0,0-8.9,2.12l1.27,4.34a12.81,12.81,0,0,1,6.49-1.82c4,0,4.6,2.24,4.6,3.66v.35c-8.6,0-14.05,3-14.05,9,0,3.71,2.78,7.18,7.6,7.18a8.65,8.65,0,0,0,6.92-3.07h.14s1,4.11,6.42,2.53a33.54,33.54,0,0,1-.4-5.72v-8.47Zm-6.42,5.69a3.83,3.83,0,0,1-.17,1.28,4.51,4.51,0,0,1-4.34,3.05,2.93,2.93,0,0,1-3.17-3.16c0-3.26,3.59-4.16,7.68-4.15Z" transform="translate(-272.79 -356.7)" style="fill:#0071dc;fill-rule:evenodd"/><path d="M463.17,388.47a2.32,2.32,0,0,1-.09,2.9l-11.74,8.22c-1.21.69-3-.14-4.08-1.94s-.87-3.82.35-4.51l13-6.05a2.35,2.35,0,0,1,2.55,1.39m15.44,0a2.36,2.36,0,0,1,2.57-1.39l13,6.05c1.21.69,1.39,2.72.36,4.51s-2.88,2.65-4.09,1.94l-11.74-8.22a2.35,2.35,0,0,1-.07-2.9m-7.74,4.44a2.37,2.37,0,0,1,2.48,1.53l1.25,14.29c0,1.41-1.65,2.57-3.73,2.57s-3.73-1.16-3.73-2.57l1.27-14.29a2.31,2.31,0,0,1,2.46-1.51m7.72-13.39a2.36,2.36,0,0,0,2.57,1.39l13-6.05c1.21-.69,1.39-2.71.36-4.51s-2.88-2.65-4.09-1.94l-11.74,8.22a2.37,2.37,0,0,0-.07,2.91m-15.46,0a2.34,2.34,0,0,0-.09-2.91l-11.74-8.22c-1.21-.71-3,.14-4.08,1.94s-.87,3.82.35,4.51l13,6.05a2.35,2.35,0,0,0,2.55-1.39m7.72-4.44a2.37,2.37,0,0,0,2.48-1.53l1.25-14.29c0-1.41-1.65-2.57-3.73-2.57s-3.73,1.16-3.73,2.57l1.27,14.29a2.31,2.31,0,0,0,2.46,1.51" transform="translate(-272.79 -356.7)" style="fill:#f3b53b;fill-rule:evenodd"/></svg>