<svg xmlns="http://www.w3.org/2000/svg" viewBox="0 0 193.98 152.67"><title>Wipro logo</title><path d="M590.68,495.58a7.71,7.71,0,1,0,5.45-9.44,7.71,7.71,0,0,0-5.45,9.44" transform="translate(-415.01 -435.67)" style="fill:#2a4c87"/><path d="M580.19,503.84a5.26,5.26,0,1,0-6.44-3.72,5.26,5.26,0,0,0,6.44,3.72" transform="translate(-415.01 -435.67)" style="fill:#2a4c87"/><path d="M564.76,506.52a3.85,3.85,0,1,0-4.72-2.72,3.85,3.85,0,0,0,4.72,2.72" transform="translate(-415.01 -435.67)" style="fill:#2a4c87"/><path d="M552.71,508.29a2.45,2.45,0,1,0-3-1.74,2.45,2.45,0,0,0,3,1.74" transform="translate(-415.01 -435.67)" style="fill:#2e4e88"/><path d="M584.92,479.94a7,7,0,1,0,2.57-9.57,7,7,0,0,0-2.57,9.57" transform="translate(-415.01 -435.67)" style="fill:#1f3d70"/><path d="M569.44,488.88a4.91,4.91,0,1,0,1.8-6.7,4.91,4.91,0,0,0-1.8,6.7" transform="translate(-415.01 -435.67)" style="fill:#1f3d70"/><path d="M558.43,491.19a3.5,3.5,0,1,0,4.79,1.28,3.51,3.51,0,0,0-4.79-1.28" transform="translate(-415.01 -435.67)" style="fill:#1f3d70"/><path d="M548.57,498.3a2.28,2.28,0,1,0,3.11.83,2.27,2.27,0,0,0-3.11-.83" transform="translate(-415.01 -435.67)" style="fill:#1f3d70"/><path d="M584.13,466.17a6.31,6.31,0,1,0-8.92,0,6.31,6.31,0,0,0,8.92,0" transform="translate(-415.01 -435.67)" style="fill:#194c88"/><path d="M568.77,472.61a4.56,4.56,0,1,0,0,6.45,4.56,4.56,0,0,0,0-6.45" transform="translate(-415.01 -435.67)" style="fill:#194c88"/><path d="M552.29,484.64a3.16,3.16,0,1,0,4.46,0,3.16,3.16,0,0,0-4.46,0" transform="translate(-415.01 -435.67)" style="fill:#194c88"/><path d="M544.48,496.9a2.1,2.1,0,1,0,0-3,2.1,2.1,0,0,0,0,3" transform="translate(-415.01 -435.67)" style="fill:#194c88"/><path d="M561.94,455.58a6,6,0,1,0-2.18-8.14,6,6,0,0,0,2.18,8.14" transform="translate(-415.01 -435.67)" style="fill:#3468a3"/><path d="M551.29,465.62a4.21,4.21,0,1,0,5.74-1.54,4.21,4.21,0,0,0-5.74,1.54" transform="translate(-415.01 -435.67)" style="fill:#3468a3"/><path d="M548.54,478.8a2.8,2.8,0,1,0,1,3.83,2.8,2.8,0,0,0-1-3.83" transform="translate(-415.01 -435.67)" style="fill:#3468a3"/><path d="M542.05,490a1.93,1.93,0,1,0,.71,2.63,1.93,1.93,0,0,0-.71-2.63" transform="translate(-415.01 -435.67)" style="fill:#3468a3"/><path d="M546.3,448.74a5.61,5.61,0,1,0-4-6.87,5.61,5.61,0,0,0,4,6.87" transform="translate(-415.01 -435.67)" style="fill:#4c8dcb"/><path d="M541.59,466.35a3.85,3.85,0,1,0-2.73-4.72,3.86,3.86,0,0,0,2.73,4.72" transform="translate(-415.01 -435.67)" style="fill:#4c8dcb"/><path d="M537.87,480.23A2.63,2.63,0,1,0,536,477a2.63,2.63,0,0,0,1.86,3.22" transform="translate(-415.01 -435.67)" style="fill:#4c8dcb"/><path d="M533.72,488.92a1.75,1.75,0,1,0,2.15-1.24,1.75,1.75,0,0,0-2.15,1.24" transform="translate(-415.01 -435.67)" style="fill:#4c8dcb"/><path d="M529.34,446.18a5.26,5.26,0,1,0-5.26-5.26,5.26,5.26,0,0,0,5.26,5.26" transform="translate(-415.01 -435.67)" style="fill:#3498b3"/><path d="M529.34,457.4a3.51,3.51,0,1,0,3.5,3.5,3.5,3.5,0,0,0-3.5-3.5" transform="translate(-415.01 -435.67)" style="fill:#3498b3"/><path d="M531.79,476.5a2.45,2.45,0,1,0-2.45,2.45,2.45,2.45,0,0,0,2.45-2.45" transform="translate(-415.01 -435.67)" style="fill:#3498b3"/><path d="M529.34,487a1.58,1.58,0,1,0,1.58,1.58,1.58,1.58,0,0,0-1.58-1.58" transform="translate(-415.01 -435.67)" style="fill:#3498b3"/><path d="M512.19,448.11a4.91,4.91,0,1,0-6-3.47,4.9,4.9,0,0,0,6,3.47" transform="translate(-415.01 -435.67)" style="fill:#0aa496"/><path d="M513,463.48a3.15,3.15,0,1,0,2.23-3.86,3.15,3.15,0,0,0-2.23,3.86" transform="translate(-415.01 -435.67)" style="fill:#0aa496"/><path d="M517.93,478.32a2.28,2.28,0,1,0,1.61-2.79,2.28,2.28,0,0,0-1.61,2.79" transform="translate(-415.01 -435.67)" style="fill:#0aa496"/><path d="M521.9,489.78a1.4,1.4,0,1,0,1-1.72,1.41,1.41,0,0,0-1,1.72" transform="translate(-415.01 -435.67)" style="fill:#0aa496"/><path d="M496,454.44a4.56,4.56,0,1,0-6.22-1.67,4.56,4.56,0,0,0,6.22,1.67" transform="translate(-415.01 -435.67)" style="fill:#00aa75"/><path d="M505.16,470.23a2.8,2.8,0,1,0-3.83-1,2.81,2.81,0,0,0,3.83,1" transform="translate(-415.01 -435.67)" style="fill:#00aa75"/><path d="M512.61,483.13a2.1,2.1,0,1,0-2.87-.77,2.1,2.1,0,0,0,2.87.77" transform="translate(-415.01 -435.67)" style="fill:#00aa75"/><path d="M518.67,491.17a1.23,1.23,0,1,0-.45,1.68,1.23,1.23,0,0,0,.45-1.68" transform="translate(-415.01 -435.67)" style="fill:#00aa75"/><path d="M482,464.8a4.21,4.21,0,1,0-5.95,0,4.2,4.2,0,0,0,5.95,0" transform="translate(-415.01 -435.67)" style="fill:#4fba6a"/><path d="M494.91,474.21a2.45,2.45,0,1,0,0,3.47,2.45,2.45,0,0,0,0-3.47" transform="translate(-415.01 -435.67)" style="fill:#4fba6a"/><path d="M505.56,485.61a1.93,1.93,0,1,0,0,2.73,1.93,1.93,0,0,0,0-2.73" transform="translate(-415.01 -435.67)" style="fill:#4fba6a"/><path d="M513.5,494.78a1.05,1.05,0,1,0,0,1.49,1.06,1.06,0,0,0,0-1.49" transform="translate(-415.01 -435.67)" style="fill:#4fba6a"/><path d="M465.68,479.77a3.86,3.86,0,1,0-1.41-5.27,3.86,3.86,0,0,0,1.41,5.27" transform="translate(-415.01 -435.67)" style="fill:#7ec45f"/><path d="M486.11,484.74a2.1,2.1,0,1,0,.77,2.87,2.11,2.11,0,0,0-.77-2.87" transform="translate(-415.01 -435.67)" style="fill:#7ec45f"/><path d="M499.44,492.84a1.75,1.75,0,1,0,.64,2.39,1.75,1.75,0,0,0-.64-2.39" transform="translate(-415.01 -435.67)" style="fill:#7ec45f"/><path d="M600.57,503.58A8.42,8.42,0,1,0,609,512a8.42,8.42,0,0,0-8.42-8.42" transform="translate(-415.01 -435.67)" style="fill:#4c609b"/><path d="M586.62,512a6,6,0,1,0-6,6,6,6,0,0,0,6-6" transform="translate(-415.01 -435.67)" style="fill:#4c609b"/><path d="M565,507.89a4.11,4.11,0,1,0,4.11,4.11,4.11,4.11,0,0,0-4.11-4.11" transform="translate(-415.01 -435.67)" style="fill:#4c609b"/><path d="M555.58,512a2.68,2.68,0,1,0-2.68,2.68,2.68,2.68,0,0,0,2.68-2.68" transform="translate(-415.01 -435.67)" style="fill:#54669f"/><path d="M600.12,523a7.71,7.71,0,1,0,5.45,9.44,7.71,7.71,0,0,0-5.45-9.44" transform="translate(-415.01 -435.67)" style="fill:#746fa7"/><path d="M577.46,530.32a5.26,5.26,0,1,0-3.72-6.44,5.25,5.25,0,0,0,3.72,6.44" transform="translate(-415.01 -435.67)" style="fill:#746fa7"/><path d="M562.76,524.93a3.86,3.86,0,1,0-2.73-4.72,3.86,3.86,0,0,0,2.73,4.72" transform="translate(-415.01 -435.67)" style="fill:#746fa7"/><path d="M551.44,520.45a2.45,2.45,0,1,0-1.74-3,2.45,2.45,0,0,0,1.74,3" transform="translate(-415.01 -435.67)" style="fill:#746fa7"/><path d="M594.5,541.5a7,7,0,1,0,2.57,9.57,7,7,0,0,0-2.57-9.57" transform="translate(-415.01 -435.67)" style="fill:#99558e"/><path d="M577.94,540a4.91,4.91,0,1,0-6.7,1.8,4.91,4.91,0,0,0,6.7-1.8" transform="translate(-415.01 -435.67)" style="fill:#99558e"/><path d="M563.22,531.53a3.5,3.5,0,1,0-4.79,1.28,3.5,3.5,0,0,0,4.79-1.28" transform="translate(-415.01 -435.67)" style="fill:#99558e"/><path d="M551.69,524.87a2.28,2.28,0,1,0-3.11.83,2.28,2.28,0,0,0,3.11-.83" transform="translate(-415.01 -435.67)" style="fill:#99558e"/><path d="M575.21,557.83a6.31,6.31,0,1,0,8.92,0,6.31,6.31,0,0,0-8.92,0" transform="translate(-415.01 -435.67)" style="fill:#af3379"/><path d="M568.77,551.39a4.56,4.56,0,1,0-6.44,0,4.56,4.56,0,0,0,6.44,0" transform="translate(-415.01 -435.67)" style="fill:#af3379"/><path d="M556.75,539.36a3.15,3.15,0,1,0-4.46,0,3.15,3.15,0,0,0,4.46,0" transform="translate(-415.01 -435.67)" style="fill:#af3379"/><path d="M544.48,530.07a2.1,2.1,0,1,0,0-3,2.1,2.1,0,0,0,0,3" transform="translate(-415.01 -435.67)" style="fill:#af3379"/><path d="M561.94,568.42a6,6,0,1,0,8.14,2.18,6,6,0,0,0-8.14-2.18" transform="translate(-415.01 -435.67)" style="fill:#be266a"/><path d="M558.58,554.18a4.21,4.21,0,1,0-1.54,5.74,4.21,4.21,0,0,0,1.54-5.74" transform="translate(-415.01 -435.67)" style="fill:#be266a"/><path d="M548.54,545.2a2.8,2.8,0,1,0-3.83-1,2.8,2.8,0,0,0,3.83,1" transform="translate(-415.01 -435.67)" style="fill:#be266a"/><path d="M540.12,530.63a1.93,1.93,0,1,0,2.63.7,1.93,1.93,0,0,0-2.63-.7" transform="translate(-415.01 -435.67)" style="fill:#be266a"/><path d="M546.3,575.26a5.61,5.61,0,1,0,6.87,4,5.61,5.61,0,0,0-6.87-4" transform="translate(-415.01 -435.67)" style="fill:#d4525c"/><path d="M543.58,565.1a3.85,3.85,0,1,0-4.72-2.72,3.85,3.85,0,0,0,4.72,2.72" transform="translate(-415.01 -435.67)" style="fill:#d4525c"/><path d="M541.08,545.63a2.63,2.63,0,1,0-1.86,3.22,2.63,2.63,0,0,0,1.86-3.22" transform="translate(-415.01 -435.67)" style="fill:#d4525c"/><path d="M537.11,534.17a1.75,1.75,0,1,0-1.24,2.15,1.75,1.75,0,0,0,1.24-2.15" transform="translate(-415.01 -435.67)" style="fill:#d4525c"/><path d="M529.34,577.82a5.26,5.26,0,1,0,5.26,5.26,5.26,5.26,0,0,0-5.26-5.26" transform="translate(-415.01 -435.67)" style="fill:#e0654f"/><path d="M525.83,563.1a3.5,3.5,0,1,0,3.5-3.5,3.5,3.5,0,0,0-3.5,3.5" transform="translate(-415.01 -435.67)" style="fill:#e0654f"/><path d="M529.34,550a2.45,2.45,0,1,0-2.45-2.45,2.45,2.45,0,0,0,2.45,2.45" transform="translate(-415.01 -435.67)" style="fill:#e0654f"/><path d="M529.34,533.83a1.58,1.58,0,1,0,1.58,1.58,1.57,1.57,0,0,0-1.58-1.58" transform="translate(-415.01 -435.67)" style="fill:#e0654f"/><path d="M512.19,575.89a4.91,4.91,0,1,0,3.47,6,4.91,4.91,0,0,0-3.47-6" transform="translate(-415.01 -435.67)" style="fill:#f57f2a"/><path d="M516.91,558.29a3.15,3.15,0,1,0,2.23,3.86,3.15,3.15,0,0,0-2.23-3.86" transform="translate(-415.01 -435.67)" style="fill:#f57f2a"/><path d="M520.72,544.07a2.28,2.28,0,1,0,1.61,2.79,2.28,2.28,0,0,0-1.61-2.79" transform="translate(-415.01 -435.67)" style="fill:#f57f2a"/><path d="M524.61,534.95a1.4,1.4,0,1,0-1.72,1,1.4,1.4,0,0,0,1.72-1" transform="translate(-415.01 -435.67)" style="fill:#f57f2a"/><path d="M496,569.56a4.56,4.56,0,1,0,1.67,6.22,4.56,4.56,0,0,0-1.67-6.22" transform="translate(-415.01 -435.67)" style="fill:#f89828"/><path d="M505.16,553.77a2.8,2.8,0,1,0,1,3.83,2.81,2.81,0,0,0-1-3.83" transform="translate(-415.01 -435.67)" style="fill:#f89828"/><path d="M510.5,544.52a2.1,2.1,0,1,0-.77-2.87,2.1,2.1,0,0,0,.77,2.87" transform="translate(-415.01 -435.67)" style="fill:#f89828"/><path d="M518.22,531.16a1.23,1.23,0,1,0,.45,1.68,1.23,1.23,0,0,0-.45-1.68" transform="translate(-415.01 -435.67)" style="fill:#f89828"/><path d="M476.07,559.21a4.21,4.21,0,1,0,5.95,0,4.21,4.21,0,0,0-5.95,0" transform="translate(-415.01 -435.67)" style="fill:#fec127"/><path d="M491.44,546.32a2.45,2.45,0,1,0,3.47,0,2.45,2.45,0,0,0-3.47,0" transform="translate(-415.01 -435.67)" style="fill:#fec127"/><path d="M502.84,535.66a1.93,1.93,0,1,0,2.73,0,1.93,1.93,0,0,0-2.73,0" transform="translate(-415.01 -435.67)" style="fill:#fec127"/><path d="M513.5,527.73a1.05,1.05,0,1,0,0,1.49,1.06,1.06,0,0,0,0-1.49" transform="translate(-415.01 -435.67)" style="fill:#fec127"/><path d="M465.83,544.09a3.86,3.86,0,1,0,5.27,1.41,3.85,3.85,0,0,0-5.27-1.41" transform="translate(-415.01 -435.67)" style="fill:#fed627"/><path d="M484,535.62a2.1,2.1,0,1,0,2.87.77,2.1,2.1,0,0,0-2.87-.77" transform="translate(-415.01 -435.67)" style="fill:#fed627"/><path d="M497.69,528.13a1.75,1.75,0,1,0,2.39.64,1.75,1.75,0,0,0-2.39-.64" transform="translate(-415.01 -435.67)" style="fill:#fed627"/><path d="M458,499.78h6.22v23.8H458Zm3.78-10.64a3.58,3.58,0,1,0,2.53,4.38,3.57,3.57,0,0,0-2.53-4.38m21.51,34.92a10.68,10.68,0,0,1-4.36-.86,7.47,7.47,0,0,1-3.13-2.54v14.78h-6V499.78h6v3.3a8.4,8.4,0,0,1,3.13-2.77,9.27,9.27,0,0,1,4.36-1,11.15,11.15,0,0,1,4.32.86,10.83,10.83,0,0,1,3.66,2.49,12.29,12.29,0,0,1,2.54,3.92,13.28,13.28,0,0,1,.95,5.11,13,13,0,0,1-1,5.13,12.69,12.69,0,0,1-2.56,3.9,11,11,0,0,1-7.89,3.35M482,518.33a6.22,6.22,0,0,0,2.56-.53,6.89,6.89,0,0,0,2.09-1.43,6.51,6.51,0,0,0,1.41-2.11,7,7,0,0,0,0-5.25,6.56,6.56,0,0,0-1.41-2.12,6.93,6.93,0,0,0-2.09-1.43,6.22,6.22,0,0,0-2.56-.53,6.47,6.47,0,0,0-2.62.53,6.47,6.47,0,0,0-3.48,3.57,7,7,0,0,0,0,5.22,6.66,6.66,0,0,0,1.39,2.11,6.55,6.55,0,0,0,2.09,1.43,6.47,6.47,0,0,0,2.62.53m17-18.55h6v3.66a6.22,6.22,0,0,1,2.58-3.11,7.76,7.76,0,0,1,4-1,9,9,0,0,1,2.23.26,8.29,8.29,0,0,1,1.78.66l-2.2,6a4.24,4.24,0,0,0-1.32-.59,6.6,6.6,0,0,0-1.85-.24,5.31,5.31,0,0,0-3.75,1.3q-1.41,1.3-1.41,4.3v12.56h-6Zm30,24.28a12.65,12.65,0,0,1-5-1,12.39,12.39,0,0,1-4-2.67,12.27,12.27,0,0,1-3.59-8.75,12.41,12.41,0,0,1,.95-4.83,11.94,11.94,0,0,1,2.64-3.95,12.87,12.87,0,0,1,17.94,0,12.3,12.3,0,0,1,3.64,8.77,12,12,0,0,1-1,4.8,12.83,12.83,0,0,1-2.64,3.95,12.1,12.1,0,0,1-4,2.67,12.81,12.81,0,0,1-5,1m0-5.77a6.22,6.22,0,0,0,2.56-.53,6.79,6.79,0,0,0,2.07-1.41,6.43,6.43,0,0,0,1.39-2.09,7,7,0,0,0,0-5.22,6.41,6.41,0,0,0-1.39-2.12,6.79,6.79,0,0,0-2.07-1.41,6.43,6.43,0,0,0-5.11,0,6.74,6.74,0,0,0-2.07,1.41,6.37,6.37,0,0,0-1.39,2.12,7,7,0,0,0,0,5.22,6.4,6.4,0,0,0,1.39,2.09,6.74,6.74,0,0,0,2.07,1.41,6.22,6.22,0,0,0,2.56.53M415,499.77h6.16L426,515l5.64-15.19H437L442.57,515l5-15.19h6.16l-8.06,23.78h-5.73L434.25,508l-5.72,15.5h-5.81Z" transform="translate(-415.01 -435.67)" style="fill:#382050"/></svg>